HIERARCHY
ROOT hip
{
	OFFSET 0.000000 0.000000 0.000000 
	CHANNELS 6 Xposition Yposition Zposition Zrotation Xrotation Yrotation
	JOINT abdomen
	{
		OFFSET 0.000000 3.402643 0.000000 
		CHANNELS 3 Zrotation Xrotation Yrotation
		JOINT chest
		{
			OFFSET 0.000000 8.438565 -0.680529 
			CHANNELS 3 Zrotation Xrotation Yrotation
			JOINT neck
			{
				OFFSET 0.000000 10.207942 -0.272212 
				CHANNELS 3 Zrotation Xrotation Yrotation
				JOINT head
				{
					OFFSET 0.000000 3.130431 0.000000 
					CHANNELS 3 Zrotation Xrotation Yrotation
					End Site
					{
						OFFSET 0.000000 3.130435 0.000000 
					}
				}
			}
			JOINT lCollar
			{
				OFFSET 3.470700 6.669187 -0.816635 
				CHANNELS 3 Zrotation Xrotation Yrotation
				JOINT lShldr
				{
					OFFSET 3.198488 0.000000 0.000000 
					CHANNELS 3 Zrotation Xrotation Yrotation
					JOINT lForeArm
					{
						OFFSET 10.139888 0.000000 0.000000 
						CHANNELS 3 Zrotation Xrotation Yrotation
						JOINT lHand
						{
							OFFSET 8.370511 0.000000 0.000000 
							CHANNELS 3 Zrotation Xrotation Yrotation
							End Site
							{
								OFFSET 4.083176 0.000000 0.000000 
							}
						}
					}
				}
			}
			JOINT rCollar
			{
				OFFSET -3.470700 6.669187 -0.816635 
				CHANNELS 3 Zrotation Xrotation Yrotation
				JOINT rShldr
				{
					OFFSET -3.198488 0.000000 0.000000 
					CHANNELS 3 Zrotation Xrotation Yrotation
					JOINT rForeArm
					{
						OFFSET -10.139888 0.000000 0.000000 
						CHANNELS 3 Zrotation Xrotation Yrotation
						JOINT rHand
						{
							OFFSET -8.370511 0.000000 0.000000 
							CHANNELS 3 Zrotation Xrotation Yrotation
							End Site
							{
								OFFSET -4.083176 0.000000 0.000000 
							}
						}
					}
				}
			}
		}
	}
	JOINT lThigh
	{
		OFFSET 5.308129 -1.633274 1.361059 
		CHANNELS 3 Zrotation Xrotation Yrotation
		JOINT lShin
		{
			OFFSET -2.041588 -20.007561 0.000000 
			CHANNELS 3 Zrotation Xrotation Yrotation
			JOINT lFoot
			{
				OFFSET 0.000000 -19.190928 -1.224953 
				CHANNELS 3 Zrotation Xrotation Yrotation
				End Site
				{
					OFFSET 0.000000 -2.449906 4.627600 
				}
			}
		}
	}
	JOINT rThigh
	{
		OFFSET -5.308129 -1.633274 1.361059 
		CHANNELS 3 Zrotation Xrotation Yrotation
		JOINT rShin
		{
			OFFSET 2.041588 -20.007561 0.000000 
			CHANNELS 3 Zrotation Xrotation Yrotation
			JOINT rFoot
			{
				OFFSET 0.000000 -19.190928 -1.224953 
				CHANNELS 3 Zrotation Xrotation Yrotation
				End Site
				{
					OFFSET 0.000000 -2.449906 4.627600 
				}
			}
		}
	}
}
MOTION
Frames: 18
Frame Time: 0.033333
0.000000 48.013634 0.291666 -0.000000 -0.000010 -0.000000 -0.000000 -0.000002 -0.000000 -0.000000 -0.000003 -0.000000 -0.126956 0.361320 0.000779 0.048855 -1.914062 -0.066727 -2.319457 -0.163324 2.351596 -75.285950 15.905779 5.941126 -7.552125 -10.959311 -28.946102 12.969786 -0.979075 -3.315890 2.867833 -0.152935 -1.687338 76.180550 15.881199 -6.712394 4.828370 -10.977207 29.659187 -13.356312 -3.424351 3.497666 3.365270 -7.537652 0.932946 -2.842690 15.198490 -0.550710 -0.829557 -8.044616 0.638019 -4.381215 -7.522904 -0.504117 2.801413 15.124767 -0.252797 1.105032 -8.224213 -1.465799 
0.000000 48.013634 0.291666 -0.000000 -0.000010 -0.000000 -0.000000 -0.000002 -0.000000 -0.000000 -0.000003 -0.000000 -0.273464 0.800768 0.003775 0.117506 -4.218741 -0.137840 1.798080 0.018345 2.762318 -78.108627 15.985841 0.507922 -14.700687 -27.871412 -45.451050 21.583643 -1.994501 -3.187211 -0.567789 -0.055703 -1.279242 80.147980 15.974270 -2.275408 9.301752 -29.145765 46.856762 -22.234018 -7.612481 3.707301 3.365270 -7.537652 0.932946 -2.842690 15.198490 -0.550710 -0.829557 -8.044616 0.638019 -4.381215 -7.522904 -0.504117 2.801413 15.124767 -0.252797 1.105032 -8.224213 -1.465799 
0.000000 48.013634 0.291666 -0.000000 -0.000010 -0.000000 -0.000000 -0.000002 -0.000000 -0.000000 -0.000003 -0.000000 -0.420028 1.289023 0.019215 0.167124 -6.601533 -0.205396 5.863966 0.256130 3.157208 -80.934265 15.932234 -4.804090 -32.445553 -38.470055 -70.381378 30.083679 -3.326125 -2.991622 -3.965424 -0.007583 -0.867063 84.005180 15.974473 2.265249 25.831165 -42.078407 73.432510 -31.321646 -11.440747 3.603068 3.365270 -7.537652 0.932946 -2.852527 15.196703 -0.548810 -0.864934 -8.044891 0.650148 -4.381215 -7.522904 -0.504117 2.801413 15.124767 -0.252797 1.105032 -8.224213 -1.465799 
0.000000 48.013634 0.291666 -0.000000 -0.000010 -0.000000 -0.000000 -0.000002 -0.000000 -0.000000 -0.000003 -0.000000 -0.537400 1.884680 0.017583 0.148268 -8.896454 -0.260274 9.293571 0.499962 3.469427 -83.355644 15.794098 -9.126640 -50.687126 -38.791367 -95.288445 37.207764 -5.434299 -2.789054 -6.836277 -0.005585 -0.523594 87.066780 15.889400 6.479022 45.054302 -45.192745 101.617241 -39.895050 -13.770220 2.722289 3.365270 -7.537652 0.932946 -2.842690 15.198490 -0.550710 -0.829557 -8.044616 0.638019 -4.381215 -7.522904 -0.504117 2.801413 15.124767 -0.252797 1.105032 -8.224213 -1.465799 
0.000000 48.013634 0.291666 -0.000000 -0.000010 -0.000000 -0.000000 -0.000002 -0.000000 -0.000000 -0.000003 -0.000000 -0.606101 2.617038 -0.001621 0.059688 -10.986324 -0.310881 11.620759 0.687913 3.673028 -85.077583 15.664368 -11.781372 -57.932140 -36.040474 -110.225441 41.983551 -8.605906 -2.634848 -8.779530 -0.022157 -0.289539 88.784203 15.754274 10.028851 53.504658 -46.144230 118.806725 -47.256603 -13.882145 0.814015 3.365270 -7.537652 0.932946 -2.842690 15.198490 -0.550710 -0.829557 -8.044616 0.638019 -4.381215 -7.522904 -0.504117 2.801413 15.124767 -0.252797 1.105032 -8.224213 -1.465799 
0.000000 48.013634 0.291666 -0.000000 -0.000010 -0.000000 -0.000000 -0.000002 -0.000000 -0.000000 -0.000003 -0.000000 -0.645726 3.486104 -0.029203 -0.030057 -12.910154 -0.348512 12.983423 0.805995 3.787213 -86.181557 15.593984 -13.046839 -57.373779 -35.996471 -117.792389 44.708851 -12.446738 -2.557884 -9.922020 -0.041440 -0.153906 89.247635 15.606879 12.864818 53.765034 -50.775200 126.580994 -53.077366 -12.644002 -1.676694 3.365270 -7.537652 0.932946 -2.842690 15.198490 -0.550710 -0.829557 -8.044616 0.638019 -4.381215 -7.522904 -0.504117 2.801413 15.124767 -0.252797 1.105032 -8.224213 -1.465799 
0.000000 48.013634 0.291666 -0.000000 -0.000010 -0.000000 -0.000000 -0.000002 -0.000000 -0.000000 -0.000003 -0.000000 -0.656330 4.511421 -0.055905 0.010100 -14.785151 -0.348983 13.674502 0.865578 3.842805 -86.803650 15.571200 -13.421208 -53.317722 -38.658684 -120.904251 46.000702 -16.406685 -2.545175 -10.498136 -0.052341 -0.086419 88.665024 15.467777 15.039281 48.923138 -58.175949 127.104630 -57.264606 -11.320714 -4.151109 3.365270 -7.537652 0.932946 -2.842690 15.198490 -0.550710 -0.829557 -8.044616 0.638019 -4.381215 -7.522904 -0.504117 2.801413 15.124767 -0.252797 1.105032 -8.224213 -1.465799 
0.000000 48.013634 0.291666 -0.000000 -0.000010 -0.000000 -0.000000 -0.000002 -0.000000 -0.000000 -0.000003 -0.000000 -0.657529 5.683213 -0.071602 0.285492 -16.708786 -0.279200 13.966249 0.894577 3.866417 -87.121582 15.572447 -13.400973 -48.617886 -41.848358 -121.438713 46.469151 -19.912195 -2.573025 -10.752018 -0.057422 -0.057569 87.283783 15.354830 16.564404 39.887920 -65.061852 121.240868 -60.013866 -11.208798 -6.070827 3.365270 -7.537652 0.932946 -2.852527 15.196703 -0.548810 -0.864934 -8.044891 0.650148 -4.381215 -7.522904 -0.504117 2.801413 15.124767 -0.252797 1.105032 -8.224213 -1.465799 
0.000000 48.013634 0.291666 -0.000000 -0.000010 -0.000000 -0.000000 -0.000002 -0.000000 -0.000000 -0.000003 -0.000000 -0.669080 7.021005 -0.064810 0.897165 -18.738098 -0.082720 14.122027 0.907503 3.882722 -87.283272 15.573689 -13.380744 -45.545395 -43.517567 -121.385765 46.650127 -22.503754 -2.602576 -10.869183 -0.060994 -0.038371 85.346367 15.281559 17.502991 29.938812 -68.809418 112.760605 -61.651726 -13.210831 -7.116680 3.365270 -7.537652 0.932946 -2.842690 15.198490 -0.550710 -0.829557 -8.044616 0.638019 -4.381215 -7.522904 -0.504117 2.801413 15.124767 -0.252797 1.105032 -8.224213 -1.465799 
0.000000 48.013634 0.291666 -0.000000 -0.000010 -0.000000 -0.000000 -0.000002 -0.000000 -0.000000 -0.000003 -0.000000 -0.661658 8.554126 -0.057828 1.744613 -20.801727 0.248925 14.199670 0.917567 3.890853 -87.360291 15.571200 -13.421202 -43.826809 -43.870239 -121.372444 46.736340 -24.423866 -2.633804 -10.937546 -0.060941 -0.038356 83.145996 15.238335 18.068090 21.380436 -70.141045 104.819969 -62.631687 -16.539045 -7.547683 3.365270 -7.537652 0.932946 -2.842690 15.198490 -0.550710 -0.829557 -8.044616 0.638019 -4.381215 -7.522904 -0.504117 2.801413 15.124767 -0.252797 1.105032 -8.224213 -1.465799 
0.000000 48.013634 0.291666 -0.000000 -0.000010 -0.000000 -0.000000 -0.000002 -0.000000 -0.000000 -0.000003 -0.000000 -0.605521 10.331464 -0.037885 2.701834 -22.819006 0.677395 14.248388 0.920873 3.890016 -87.392822 15.567444 -13.481908 -42.768383 -43.622978 -121.424080 46.759712 -25.931337 -2.663945 -10.976598 -0.062776 -0.028765 80.968925 15.204383 18.440907 14.679374 -70.320404 98.400726 -63.262993 -20.218359 -7.721793 3.365270 -7.537652 0.932946 -2.842690 15.198490 -0.550710 -0.829557 -8.044616 0.638019 -4.381215 -7.522904 -0.504117 2.801413 15.124767 -0.252797 1.105032 -8.224213 -1.465799 
0.000000 48.013634 0.291666 -0.000000 -0.000010 -0.000000 -0.000000 -0.000002 -0.000000 -0.000000 -0.000003 -0.000000 -0.469933 12.392171 -0.035946 3.600879 -24.683573 1.144060 14.277622 0.922857 3.889506 -87.409081 15.562160 -13.532351 -42.035290 -43.308552 -121.496384 46.764519 -27.105368 -2.690035 -11.005892 -0.062763 -0.028762 79.171715 15.182117 18.702995 9.634630 -70.134666 93.531540 -63.731873 -23.352303 -7.835211 3.365270 -7.537652 0.932946 -2.842690 15.198490 -0.550710 -0.829557 -8.044616 0.638019 -4.381215 -7.522904 -0.504117 2.801413 15.124767 -0.252797 1.105032 -8.224213 -1.465799 
0.000000 48.013634 0.291666 -0.000000 -0.000010 -0.000000 -0.000000 -0.000002 -0.000000 -0.000000 -0.000003 -0.000000 -0.222161 14.745982 -0.060640 4.348372 -26.330770 1.609445 15.528856 0.517504 2.117019 -86.341019 11.893173 -13.168456 -42.626183 -42.979771 -122.337616 47.065811 -29.412046 -2.725853 -12.311199 -0.291188 1.030435 79.271606 12.260210 18.683498 12.833992 -69.973549 96.558578 -62.432175 -24.097839 -6.405766 3.365270 -7.537652 0.932946 -2.852527 15.196703 -0.548810 -0.864934 -8.044891 0.650148 -4.381215 -7.522904 -0.504117 2.801413 15.124767 -0.252797 1.105032 -8.224213 -1.465799 
0.000000 48.013634 0.291666 -0.000000 -0.000010 -0.000000 -0.000000 -0.000002 -0.000000 -0.000000 -0.000003 -0.000000 0.225018 17.294798 -0.164515 4.923900 -27.773893 2.025451 16.767656 0.038696 0.364667 -85.239571 8.209139 -12.878331 -43.209236 -42.643921 -123.170502 47.357655 -31.735588 -2.774816 -13.621370 -0.567680 2.069005 79.383949 9.335675 18.713913 15.959624 -69.756790 99.509445 -61.097244 -24.835106 -4.942637 3.365270 -7.537652 0.932946 -2.842690 15.198490 -0.550710 -0.829557 -8.044616 0.638019 -4.381215 -7.522904 -0.504117 2.801413 15.124767 -0.252797 1.105032 -8.224213 -1.465799 
0.000000 48.013634 0.291666 -0.000000 -0.000010 -0.000000 -0.000000 -0.000002 -0.000000 -0.000000 -0.000003 -0.000000 0.945110 19.899847 -0.399845 5.351919 -29.034286 2.388406 17.991053 -0.514879 -1.374627 -84.093597 4.526762 -12.637726 -43.769875 -42.311977 -123.973213 47.644138 -34.052639 -2.825704 -14.915550 -0.891210 3.095097 79.490028 6.422054 18.794191 18.991951 -69.487549 102.368172 -59.711964 -25.572086 -3.467725 3.365270 -7.537652 0.932946 -2.842690 15.198490 -0.550710 -0.829557 -8.044616 0.638019 -4.381215 -7.522904 -0.504117 2.801413 15.124767 -0.252797 1.105032 -8.224213 -1.465799 
0.000000 48.013634 0.291666 -0.000000 -0.000010 -0.000000 -0.000000 -0.000002 -0.000000 -0.000000 -0.000003 -0.000000 2.028361 22.418968 -0.832119 5.694296 -30.150192 2.720639 19.205553 -1.145681 -3.080006 -82.922707 0.827569 -12.452488 -44.328899 -41.966747 -124.783836 47.917862 -36.357925 -2.896756 -16.202208 -1.264083 4.116539 79.618172 3.511090 18.913807 21.999023 -69.158951 105.200912 -58.277828 -26.272732 -1.973965 3.365270 -7.537652 0.932946 -2.842690 15.198490 -0.550710 -0.829557 -8.044616 0.638019 -4.381215 -7.522904 -0.504117 2.801413 15.124767 -0.252797 1.105032 -8.224213 -1.465799 
0.000000 48.013634 0.291666 -0.000000 -0.000010 -0.000000 -0.000000 -0.000002 -0.000000 -0.000000 -0.000003 -0.000000 3.569207 24.703827 -1.532328 5.992410 -31.130424 3.018411 20.389080 -1.845280 -4.759213 -81.728867 -2.862223 -12.330077 -44.890114 -41.611450 -125.585251 48.195583 -38.675510 -2.960581 -17.490374 -1.681287 5.112784 79.753296 0.599851 19.092884 24.842028 -68.788689 107.870674 -56.825596 -26.973309 -0.472302 3.365270 -7.537652 0.932946 -2.842690 15.198490 -0.550710 -0.829557 -8.044616 0.638019 -4.381215 -7.522904 -0.504117 2.801413 15.124767 -0.252797 1.105032 -8.224213 -1.465799 
0.000000 48.013634 0.291666 -0.000000 -0.000010 -0.000000 -0.000000 -0.000002 -0.000000 -0.000000 -0.000003 -0.000000 5.648185 26.597187 -2.554877 6.257322 -32.013870 3.288508 21.549101 -2.611757 -6.410534 -80.524391 -6.569144 -12.249628 -45.438831 -41.263714 -126.377235 48.475292 -40.993816 -3.036254 -18.759092 -2.146185 6.092356 79.914642 -2.291768 19.322708 27.640247 -68.363846 110.491508 -55.312801 -27.660852 1.052722 3.365270 -7.537652 0.932946 -2.852527 15.196703 -0.548810 -0.864934 -8.044891 0.650148 -4.381215 -7.522904 -0.504117 2.801413 15.124767 -0.252797 1.105032 -8.224213 -1.465799 
